<svg width="1440" height="810" viewBox="0 0 1440 810" fill="none" xmlns="http://www.w3.org/2000/svg">
<path opacity="0.24" d="M475.949 363.994C485.177 363.994 492.658 356.514 492.658 347.287C492.658 338.061 485.177 330.581 475.949 330.581C466.721 330.581 459.241 338.061 459.241 347.287C459.241 356.514 466.721 363.994 475.949 363.994Z" fill="white" fill-opacity="0.05"/>
<path opacity="0.97" d="M969.114 802.913C975.266 802.913 980.253 797.926 980.253 791.775C980.253 785.624 975.266 780.638 969.114 780.638C962.962 780.638 957.975 785.624 957.975 791.775C957.975 797.926 962.962 802.913 969.114 802.913Z" fill="white" fill-opacity="0.05"/>
<path opacity="0.22" d="M414.177 692.044C421.168 692.044 426.835 686.378 426.835 679.388C426.835 672.398 421.168 666.731 414.177 666.731C407.186 666.731 401.519 672.398 401.519 679.388C401.519 686.378 407.186 692.044 414.177 692.044Z" fill="white" fill-opacity="0.05"/>
<path opacity="0.81" d="M1237.47 636.356C1247.81 636.356 1256.2 627.97 1256.2 617.625C1256.2 607.28 1247.81 598.894 1237.47 598.894C1227.12 598.894 1218.73 607.28 1218.73 617.625C1218.73 627.97 1227.12 636.356 1237.47 636.356Z" fill="white" fill-opacity="0.05"/>
<path opacity="0.15" d="M1145.32 587.25C1153.71 587.25 1160.51 580.45 1160.51 572.063C1160.51 563.675 1153.71 556.875 1145.32 556.875C1136.93 556.875 1130.13 563.675 1130.13 572.063C1130.13 580.45 1136.93 587.25 1145.32 587.25Z" fill="white" fill-opacity="0.05"/>
<path opacity="0.4" d="M705.823 516.881C712.254 516.881 717.468 511.668 717.468 505.238C717.468 498.807 712.254 493.594 705.823 493.594C699.391 493.594 694.177 498.807 694.177 505.238C694.177 511.668 699.391 516.881 705.823 516.881Z" fill="white" fill-opacity="0.05"/>
<path opacity="0.12" d="M252.152 158.963C261.1 158.963 268.354 151.71 268.354 142.763C268.354 133.815 261.1 126.562 252.152 126.562C243.203 126.562 235.949 133.815 235.949 142.763C235.949 151.71 243.203 158.963 252.152 158.963Z" fill="white" fill-opacity="0.05"/>
<path opacity="0.44" d="M569.114 704.7C578.062 704.7 585.316 697.447 585.316 688.5C585.316 679.553 578.062 672.3 569.114 672.3C560.165 672.3 552.911 679.553 552.911 688.5C552.911 697.447 560.165 704.7 569.114 704.7Z" fill="white" fill-opacity="0.05"/>
<path opacity="0.37" d="M250.127 795.825C258.516 795.825 265.316 789.026 265.316 780.638C265.316 772.25 258.516 765.45 250.127 765.45C241.737 765.45 234.937 772.25 234.937 780.638C234.937 789.026 241.737 795.825 250.127 795.825Z" fill="white" fill-opacity="0.05"/>
<path opacity="0.62" d="M421.266 270.844C429.935 270.844 436.962 263.817 436.962 255.15C436.962 246.482 429.935 239.456 421.266 239.456C412.597 239.456 405.57 246.482 405.57 255.15C405.57 263.817 412.597 270.844 421.266 270.844Z" fill="white" fill-opacity="0.05"/>
<path opacity="0.88" d="M555.949 648.506C565.177 648.506 572.658 641.027 572.658 631.8C572.658 622.573 565.177 615.094 555.949 615.094C546.721 615.094 539.24 622.573 539.24 631.8C539.24 641.027 546.721 648.506 555.949 648.506Z" fill="white" fill-opacity="0.05"/>
<path opacity="0.73" d="M928.608 698.119C934.48 698.119 939.24 693.359 939.24 687.488C939.24 681.616 934.48 676.856 928.608 676.856C922.735 676.856 917.975 681.616 917.975 687.488C917.975 693.359 922.735 698.119 928.608 698.119Z" fill="white" fill-opacity="0.05"/>
<path opacity="0.94" d="M665.316 406.013C672.587 406.013 678.481 400.119 678.481 392.85C678.481 385.581 672.587 379.688 665.316 379.688C658.046 379.688 652.152 385.581 652.152 392.85C652.152 400.119 658.046 406.013 665.316 406.013Z" fill="white" fill-opacity="0.05"/>
<path opacity="0.38" d="M1022.78 277.425C1031.17 277.425 1037.97 270.625 1037.97 262.237C1037.97 253.849 1031.17 247.05 1022.78 247.05C1014.4 247.05 1007.59 253.849 1007.59 262.237C1007.59 270.625 1014.4 277.425 1022.78 277.425Z" fill="white" fill-opacity="0.05"/>
<path opacity="0.26" d="M650.127 165.038C657.956 165.038 664.304 158.691 664.304 150.863C664.304 143.034 657.956 136.688 650.127 136.688C642.297 136.688 635.949 143.034 635.949 150.863C635.949 158.691 642.297 165.038 650.127 165.038Z" fill="white" fill-opacity="0.05"/>
<path opacity="0.2" d="M59.7468 657.618C67.8563 657.618 74.4304 651.045 74.4304 642.937C74.4304 634.829 67.8563 628.256 59.7468 628.256C51.6373 628.256 45.0633 634.829 45.0633 642.937C45.0633 651.045 51.6373 657.618 59.7468 657.618Z" fill="white" fill-opacity="0.05"/>
<path opacity="0.86" d="M268.354 409.556C273.108 409.556 276.962 405.703 276.962 400.95C276.962 396.197 273.108 392.344 268.354 392.344C263.601 392.344 259.747 396.197 259.747 400.95C259.747 405.703 263.601 409.556 268.354 409.556Z" fill="white" fill-opacity="0.05"/>
<path opacity="0.62" d="M1145.32 475.369C1152.31 475.369 1157.97 469.703 1157.97 462.713C1157.97 455.723 1152.31 450.057 1145.32 450.057C1138.33 450.057 1132.66 455.723 1132.66 462.713C1132.66 469.703 1138.33 475.369 1145.32 475.369Z" fill="white" fill-opacity="0.05"/>
<path opacity="0.99" d="M219.747 429.806C224.501 429.806 228.354 425.953 228.354 421.2C228.354 416.447 224.501 412.594 219.747 412.594C214.993 412.594 211.139 416.447 211.139 421.2C211.139 425.953 214.993 429.806 219.747 429.806Z" fill="white" fill-opacity="0.05"/>
<path opacity="0.51" d="M518.481 763.931C526.59 763.931 533.165 757.358 533.165 749.25C533.165 741.141 526.59 734.568 518.481 734.568C510.372 734.568 503.797 741.141 503.797 749.25C503.797 757.358 510.372 763.931 518.481 763.931Z" fill="white" fill-opacity="0.05"/>
<path opacity="0.78" d="M1424.81 753.3C1429.84 753.3 1433.92 749.22 1433.92 744.188C1433.92 739.155 1429.84 735.075 1424.81 735.075C1419.78 735.075 1415.7 739.155 1415.7 744.188C1415.7 749.22 1419.78 753.3 1424.81 753.3Z" fill="white" fill-opacity="0.05"/>
<path opacity="0.92" d="M300.759 703.182C310.547 703.182 318.481 695.249 318.481 685.463C318.481 675.677 310.547 667.744 300.759 667.744C290.972 667.744 283.038 675.677 283.038 685.463C283.038 695.249 290.972 703.182 300.759 703.182Z" fill="white" fill-opacity="0.05"/>
<path opacity="0.72" d="M1105.82 445.5C1111.42 445.5 1115.95 440.967 1115.95 435.375C1115.95 429.783 1111.42 425.25 1105.82 425.25C1100.23 425.25 1095.7 429.783 1095.7 435.375C1095.7 440.967 1100.23 445.5 1105.82 445.5Z" fill="white" fill-opacity="0.05"/>
<path opacity="0.15" d="M261.266 564.469C269.935 564.469 276.962 557.442 276.962 548.775C276.962 540.107 269.935 533.081 261.266 533.081C252.597 533.081 245.57 540.107 245.57 548.775C245.57 557.442 252.597 564.469 261.266 564.469Z" fill="white" fill-opacity="0.05"/>
<path d="M318.987 372.094C325.419 372.094 330.633 366.881 330.633 360.45C330.633 354.02 325.419 348.807 318.987 348.807C312.556 348.807 307.342 354.02 307.342 360.45C307.342 366.881 312.556 372.094 318.987 372.094Z" fill="white" fill-opacity="0.05"/>
<path opacity="0.13" d="M648.101 687.994C653.974 687.994 658.734 683.234 658.734 677.363C658.734 671.491 653.974 666.731 648.101 666.731C642.229 666.731 637.468 671.491 637.468 677.363C637.468 683.234 642.229 687.994 648.101 687.994Z" fill="white" fill-opacity="0.05"/>
<path opacity="0.26" d="M993.418 649.013C999.01 649.013 1003.54 644.48 1003.54 638.888C1003.54 633.296 999.01 628.763 993.418 628.763C987.825 628.763 983.291 633.296 983.291 638.888C983.291 644.48 987.825 649.013 993.418 649.013Z" fill="white" fill-opacity="0.05"/>
<path opacity="0.76" d="M617.722 209.081C626.39 209.081 633.418 202.055 633.418 193.387C633.418 184.72 626.39 177.693 617.722 177.693C609.053 177.693 602.025 184.72 602.025 193.387C602.025 202.055 609.053 209.081 617.722 209.081Z" fill="white" fill-opacity="0.05"/>
<path opacity="0.35" d="M816.203 673.312C822.355 673.312 827.342 668.326 827.342 662.175C827.342 656.024 822.355 651.037 816.203 651.037C810.051 651.037 805.063 656.024 805.063 662.175C805.063 668.326 810.051 673.312 816.203 673.312Z" fill="white" fill-opacity="0.05"/>
<path opacity="0.97" d="M567.089 779.119C574.08 779.119 579.747 773.453 579.747 766.463C579.747 759.473 574.08 753.807 567.089 753.807C560.098 753.807 554.43 759.473 554.43 766.463C554.43 773.453 560.098 779.119 567.089 779.119Z" fill="white" fill-opacity="0.05"/>
<path opacity="0.27" d="M760.506 222.75C769.455 222.75 776.709 215.497 776.709 206.55C776.709 197.603 769.455 190.35 760.506 190.35C751.558 190.35 744.304 197.603 744.304 206.55C744.304 215.497 751.558 222.75 760.506 222.75Z" fill="white" fill-opacity="0.05"/>
<path opacity="0.5" d="M243.038 454.612C248.631 454.612 253.165 450.079 253.165 444.487C253.165 438.895 248.631 434.362 243.038 434.362C237.445 434.362 232.911 438.895 232.911 444.487C232.911 450.079 237.445 454.612 243.038 454.612Z" fill="white" fill-opacity="0.05"/>
<path opacity="0.84" d="M101.266 805.95C105.74 805.95 109.367 802.324 109.367 797.85C109.367 793.376 105.74 789.75 101.266 789.75C96.7916 789.75 93.1646 793.376 93.1646 797.85C93.1646 802.324 96.7916 805.95 101.266 805.95Z" fill="white" fill-opacity="0.05"/>
<path opacity="0.28" d="M929.62 740.644C936.611 740.644 942.278 734.977 942.278 727.987C942.278 720.997 936.611 715.331 929.62 715.331C922.629 715.331 916.962 720.997 916.962 727.987C916.962 734.977 922.629 740.644 929.62 740.644Z" fill="white" fill-opacity="0.05"/>
<path opacity="0.31" d="M1308.35 335.137C1318.98 335.137 1327.59 326.524 1327.59 315.9C1327.59 305.275 1318.98 296.662 1308.35 296.662C1297.73 296.662 1289.11 305.275 1289.11 315.9C1289.11 326.524 1297.73 335.137 1308.35 335.137Z" fill="white" fill-opacity="0.05"/>
<path opacity="0.57" d="M1338.73 670.781C1349.08 670.781 1357.47 662.395 1357.47 652.05C1357.47 641.705 1349.08 633.318 1338.73 633.318C1328.39 633.318 1320 641.705 1320 652.05C1320 662.395 1328.39 670.781 1338.73 670.781Z" fill="white" fill-opacity="0.05"/>
<path opacity="0.31" d="M888.101 498.15C895.372 498.15 901.266 492.257 901.266 484.988C901.266 477.718 895.372 471.825 888.101 471.825C880.831 471.825 874.937 477.718 874.937 484.988C874.937 492.257 880.831 498.15 888.101 498.15Z" fill="white" fill-opacity="0.05"/>
<path opacity="0.87" d="M754.43 309.825C760.582 309.825 765.57 304.838 765.57 298.687C765.57 292.536 760.582 287.55 754.43 287.55C748.278 287.55 743.291 292.536 743.291 298.687C743.291 304.838 748.278 309.825 754.43 309.825Z" fill="white" fill-opacity="0.05"/>
<path opacity="0.17" d="M121.519 125.55C128.23 125.55 133.671 120.11 133.671 113.4C133.671 106.69 128.23 101.25 121.519 101.25C114.808 101.25 109.367 106.69 109.367 113.4C109.367 120.11 114.808 125.55 121.519 125.55Z" fill="white" fill-opacity="0.05"/>
<path opacity="0.25" d="M1004.56 24.8062C1009.31 24.8062 1013.16 20.9531 1013.16 16.2C1013.16 11.4469 1009.31 7.59375 1004.56 7.59375C999.803 7.59375 995.949 11.4469 995.949 16.2C995.949 20.9531 999.803 24.8062 1004.56 24.8062Z" fill="white" fill-opacity="0.05"/>
<path opacity="0.66" d="M580.253 351.844C588.922 351.844 595.949 344.817 595.949 336.15C595.949 327.482 588.922 320.456 580.253 320.456C571.584 320.456 564.557 327.482 564.557 336.15C564.557 344.817 571.584 351.844 580.253 351.844Z" fill="white" fill-opacity="0.05"/>
<path opacity="0.71" d="M664.304 106.313C673.811 106.313 681.519 98.6064 681.519 89.1002C681.519 79.594 673.811 71.8877 664.304 71.8877C654.796 71.8877 647.089 79.594 647.089 89.1002C647.089 98.6064 654.796 106.313 664.304 106.313Z" fill="white" fill-opacity="0.05"/>
<path opacity="0.81" d="M1297.22 624.713C1307.28 624.713 1315.44 616.553 1315.44 606.488C1315.44 596.422 1307.28 588.263 1297.22 588.263C1287.15 588.263 1278.99 596.422 1278.99 606.488C1278.99 616.553 1287.15 624.713 1297.22 624.713Z" fill="white" fill-opacity="0.05"/>
<path opacity="0.51" d="M1110.89 212.625C1117.04 212.625 1122.03 207.638 1122.03 201.487C1122.03 195.336 1117.04 190.35 1110.89 190.35C1104.73 190.35 1099.75 195.336 1099.75 201.487C1099.75 207.638 1104.73 212.625 1110.89 212.625Z" fill="white" fill-opacity="0.05"/>
<path opacity="0.58" d="M1146.33 69.8621C1153.6 69.8621 1159.49 63.9691 1159.49 56.6996C1159.49 49.4302 1153.6 43.5371 1146.33 43.5371C1139.06 43.5371 1133.16 49.4302 1133.16 56.6996C1133.16 63.9691 1139.06 69.8621 1146.33 69.8621Z" fill="white" fill-opacity="0.05"/>
<path opacity="0.32" d="M864.81 231.862C871.521 231.862 876.962 226.423 876.962 219.712C876.962 213.002 871.521 207.562 864.81 207.562C858.099 207.562 852.658 213.002 852.658 219.712C852.658 226.423 858.099 231.862 864.81 231.862Z" fill="white" fill-opacity="0.05"/>
<path opacity="0.66" d="M472.911 80.9998C482.978 80.9998 491.139 72.8402 491.139 62.7748C491.139 52.7094 482.978 44.5498 472.911 44.5498C462.844 44.5498 454.684 52.7094 454.684 62.7748C454.684 72.8402 462.844 80.9998 472.911 80.9998Z" fill="white" fill-opacity="0.05"/>
<path opacity="0.5" d="M402.025 216.168C411.253 216.168 418.734 208.689 418.734 199.462C418.734 190.236 411.253 182.756 402.025 182.756C392.797 182.756 385.316 190.236 385.316 199.462C385.316 208.689 392.797 216.168 402.025 216.168Z" fill="white" fill-opacity="0.05"/>
<path opacity="0.37" d="M853.671 72.3936C860.662 72.3936 866.329 66.7272 866.329 59.7373C866.329 52.7475 860.662 47.0811 853.671 47.0811C846.68 47.0811 841.013 52.7475 841.013 59.7373C841.013 66.7272 846.68 72.3936 853.671 72.3936Z" fill="white" fill-opacity="0.05"/>
<path opacity="0.38" d="M17.2152 671.288C24.4858 671.288 30.3797 665.395 30.3797 658.125C30.3797 650.856 24.4858 644.963 17.2152 644.963C9.94461 644.963 4.05063 650.856 4.05063 658.125C4.05063 665.395 9.94461 671.288 17.2152 671.288Z" fill="white" fill-opacity="0.05"/>
<path opacity="0.95" d="M332.152 423.225C337.185 423.225 341.266 419.145 341.266 414.113C341.266 409.08 337.185 405 332.152 405C327.118 405 323.038 409.08 323.038 414.113C323.038 419.145 327.118 423.225 332.152 423.225Z" fill="white" fill-opacity="0.05"/>
<path opacity="0.96" d="M755.443 599.906C760.756 599.906 765.063 595.6 765.063 590.288C765.063 584.975 760.756 580.669 755.443 580.669C750.13 580.669 745.823 584.975 745.823 590.288C745.823 595.6 750.13 599.906 755.443 599.906Z" fill="white" fill-opacity="0.05"/>
<path opacity="0.38" d="M181.266 454.106C188.257 454.106 193.924 448.44 193.924 441.45C193.924 434.46 188.257 428.794 181.266 428.794C174.275 428.794 168.608 434.46 168.608 441.45C168.608 448.44 174.275 454.106 181.266 454.106Z" fill="white" fill-opacity="0.05"/>
<path opacity="0.75" d="M1029.87 802.406C1037.98 802.406 1044.56 795.833 1044.56 787.725C1044.56 779.617 1037.98 773.044 1029.87 773.044C1021.76 773.044 1015.19 779.617 1015.19 787.725C1015.19 795.833 1021.76 802.406 1029.87 802.406Z" fill="white" fill-opacity="0.05"/>
<path opacity="0.63" d="M924.557 105.806C933.226 105.806 940.253 98.7801 940.253 90.1127C940.253 81.4453 933.226 74.4189 924.557 74.4189C915.888 74.4189 908.861 81.4453 908.861 90.1127C908.861 98.7801 915.888 105.806 924.557 105.806Z" fill="white" fill-opacity="0.05"/>
<path opacity="0.33" d="M1324.56 43.0316C1333.79 43.0316 1341.27 35.552 1341.27 26.3254C1341.27 17.0988 1333.79 9.61914 1324.56 9.61914C1315.33 9.61914 1307.85 17.0988 1307.85 26.3254C1307.85 35.552 1315.33 43.0316 1324.56 43.0316Z" fill="white" fill-opacity="0.05"/>
<path opacity="0.27" d="M215.696 386.775C220.17 386.775 223.797 383.149 223.797 378.675C223.797 374.202 220.17 370.575 215.696 370.575C211.222 370.575 207.595 374.202 207.595 378.675C207.595 383.149 211.222 386.775 215.696 386.775Z" fill="white" fill-opacity="0.05"/>
<path opacity="0.97" d="M115.443 35.4377C122.154 35.4377 127.595 29.998 127.595 23.2877C127.595 16.5774 122.154 11.1377 115.443 11.1377C108.732 11.1377 103.291 16.5774 103.291 23.2877C103.291 29.998 108.732 35.4377 115.443 35.4377Z" fill="white" fill-opacity="0.05"/>
<path opacity="0.89" d="M143.797 769.5C152.187 769.5 158.987 762.7 158.987 754.313C158.987 745.925 152.187 739.125 143.797 739.125C135.408 739.125 128.608 745.925 128.608 754.313C128.608 762.7 135.408 769.5 143.797 769.5Z" fill="white" fill-opacity="0.05"/>
<path opacity="0.44" d="M1389.37 772.031C1396.36 772.031 1402.03 766.365 1402.03 759.375C1402.03 752.385 1396.36 746.719 1389.37 746.719C1382.38 746.719 1376.71 752.385 1376.71 759.375C1376.71 766.365 1382.38 772.031 1389.37 772.031Z" fill="white" fill-opacity="0.05"/>
<path opacity="0.38" d="M238.987 103.275C247.376 103.275 254.177 96.4757 254.177 88.0879C254.177 79.7001 247.376 72.9004 238.987 72.9004C230.598 72.9004 223.797 79.7001 223.797 88.0879C223.797 96.4757 230.598 103.275 238.987 103.275Z" fill="white" fill-opacity="0.05"/>
<path opacity="0.17" d="M1237.47 800.381C1247.81 800.381 1256.2 791.995 1256.2 781.65C1256.2 771.305 1247.81 762.919 1237.47 762.919C1227.12 762.919 1218.73 771.305 1218.73 781.65C1218.73 791.995 1227.12 800.381 1237.47 800.381Z" fill="white" fill-opacity="0.05"/>
<path opacity="0.55" d="M880 38.475C887.83 38.475 894.177 32.1286 894.177 24.3C894.177 16.4714 887.83 10.125 880 10.125C872.17 10.125 865.823 16.4714 865.823 24.3C865.823 32.1286 872.17 38.475 880 38.475Z" fill="white" fill-opacity="0.05"/>
<path opacity="0.31" d="M142.785 599.906C149.776 599.906 155.443 594.24 155.443 587.25C155.443 580.26 149.776 574.594 142.785 574.594C135.794 574.594 130.127 580.26 130.127 587.25C130.127 594.24 135.794 599.906 142.785 599.906Z" fill="white" fill-opacity="0.05"/>
<path opacity="0.52" d="M423.291 35.4373C430.562 35.4373 436.456 29.5443 436.456 22.2748C436.456 15.0054 430.562 9.1123 423.291 9.1123C416.021 9.1123 410.127 15.0054 410.127 22.2748C410.127 29.5443 416.021 35.4373 423.291 35.4373Z" fill="white" fill-opacity="0.05"/>
<path opacity="0.95" d="M161.013 148.837C168.843 148.837 175.19 142.491 175.19 134.662C175.19 126.834 168.843 120.487 161.013 120.487C153.183 120.487 146.835 126.834 146.835 134.662C146.835 142.491 153.183 148.837 161.013 148.837Z" fill="white" fill-opacity="0.05"/>
<path opacity="0.6" d="M886.076 551.307C893.067 551.307 898.734 545.64 898.734 538.65C898.734 531.661 893.067 525.994 886.076 525.994C879.085 525.994 873.418 531.661 873.418 538.65C873.418 545.64 879.085 551.307 886.076 551.307Z" fill="white" fill-opacity="0.05"/>
<path opacity="0.9" d="M33.4177 238.444C45.4421 238.444 55.1899 228.698 55.1899 216.675C55.1899 204.652 45.4421 194.906 33.4177 194.906C21.3933 194.906 11.6456 204.652 11.6456 216.675C11.6456 228.698 21.3933 238.444 33.4177 238.444Z" fill="white" fill-opacity="0.05"/>
<path opacity="0.99" d="M827.342 112.894C832.655 112.894 836.962 108.587 836.962 103.275C836.962 97.9627 832.655 93.6562 827.342 93.6562C822.029 93.6562 817.721 97.9627 817.721 103.275C817.721 108.587 822.029 112.894 827.342 112.894Z" fill="white" fill-opacity="0.05"/>
<path opacity="0.18" d="M646.076 497.137C653.906 497.137 660.253 490.791 660.253 482.962C660.253 475.133 653.906 468.787 646.076 468.787C638.246 468.787 631.899 475.133 631.899 482.962C631.899 490.791 638.246 497.137 646.076 497.137Z" fill="white" fill-opacity="0.05"/>
<path opacity="0.18" d="M391.899 642.431C400.008 642.431 406.582 635.858 406.582 627.75C406.582 619.641 400.008 613.068 391.899 613.068C383.789 613.068 377.215 619.641 377.215 627.75C377.215 635.858 383.789 642.431 391.899 642.431Z" fill="white" fill-opacity="0.05"/>
<path opacity="0.8" d="M676.456 618.637C681.489 618.637 685.57 614.557 685.57 609.525C685.57 604.492 681.489 600.412 676.456 600.412C671.422 600.412 667.342 604.492 667.342 609.525C667.342 614.557 671.422 618.637 676.456 618.637Z" fill="white" fill-opacity="0.05"/>
<path opacity="0.4" d="M263.291 296.663C272.24 296.663 279.494 289.41 279.494 280.463C279.494 271.516 272.24 264.263 263.291 264.263C254.343 264.263 247.089 271.516 247.089 280.463C247.089 289.41 254.343 296.663 263.291 296.663Z" fill="white" fill-opacity="0.05"/>
<path opacity="0.3" d="M1276.96 363.487C1284.23 363.487 1290.13 357.594 1290.13 350.325C1290.13 343.055 1284.23 337.162 1276.96 337.162C1269.69 337.162 1263.8 343.055 1263.8 350.325C1263.8 357.594 1269.69 363.487 1276.96 363.487Z" fill="white" fill-opacity="0.05"/>
<path opacity="0.48" d="M973.165 692.044C981.274 692.044 987.848 685.471 987.848 677.363C987.848 669.255 981.274 662.682 973.165 662.682C965.055 662.682 958.481 669.255 958.481 677.363C958.481 685.471 965.055 692.044 973.165 692.044Z" fill="white" fill-opacity="0.05"/>
<path opacity="0.81" d="M807.089 356.907C813.52 356.907 818.734 351.694 818.734 345.263C818.734 338.832 813.52 333.619 807.089 333.619C800.657 333.619 795.443 338.832 795.443 345.263C795.443 351.694 800.657 356.907 807.089 356.907Z" fill="white" fill-opacity="0.05"/>
<path opacity="0.25" d="M842.532 579.656C850.641 579.656 857.215 573.083 857.215 564.975C857.215 556.867 850.641 550.294 842.532 550.294C834.422 550.294 827.848 556.867 827.848 564.975C827.848 573.083 834.422 579.656 842.532 579.656Z" fill="white" fill-opacity="0.05"/>
<path opacity="0.97" d="M489.114 638.888C499.181 638.888 507.342 630.728 507.342 620.663C507.342 610.597 499.181 602.438 489.114 602.438C479.047 602.438 470.886 610.597 470.886 620.663C470.886 630.728 479.047 638.888 489.114 638.888Z" fill="white" fill-opacity="0.05"/>
<path opacity="0.93" d="M690.633 296.156C697.624 296.156 703.291 290.49 703.291 283.5C703.291 276.51 697.624 270.844 690.633 270.844C683.642 270.844 677.975 276.51 677.975 283.5C677.975 290.49 683.642 296.156 690.633 296.156Z" fill="white" fill-opacity="0.05"/>
<path opacity="0.18" d="M1066.33 363.994C1075 363.994 1082.03 356.968 1082.03 348.3C1082.03 339.633 1075 332.606 1066.33 332.606C1057.66 332.606 1050.63 339.633 1050.63 348.3C1050.63 356.968 1057.66 363.994 1066.33 363.994Z" fill="white" fill-opacity="0.05"/>
<path opacity="0.81" d="M1096.71 536.119C1108.17 536.119 1117.47 526.826 1117.47 515.363C1117.47 503.899 1108.17 494.606 1096.71 494.606C1085.24 494.606 1075.95 503.899 1075.95 515.363C1075.95 526.826 1085.24 536.119 1096.71 536.119Z" fill="white" fill-opacity="0.05"/>
<path opacity="0.14" d="M1191.9 196.425C1198.05 196.425 1203.04 191.439 1203.04 185.288C1203.04 179.137 1198.05 174.15 1191.9 174.15C1185.75 174.15 1180.76 179.137 1180.76 185.288C1180.76 191.439 1185.75 196.425 1191.9 196.425Z" fill="white" fill-opacity="0.05"/>
<path opacity="0.3" d="M939.747 462.713C948.136 462.713 954.937 455.913 954.937 447.525C954.937 439.138 948.136 432.338 939.747 432.338C931.358 432.338 924.557 439.138 924.557 447.525C924.557 455.913 931.358 462.713 939.747 462.713Z" fill="white" fill-opacity="0.05"/>
<path opacity="0.24" d="M764.557 348.806C769.87 348.806 774.177 344.499 774.177 339.187C774.177 333.875 769.87 329.568 764.557 329.568C759.244 329.568 754.937 333.875 754.937 339.187C754.937 344.499 759.244 348.806 764.557 348.806Z" fill="white" fill-opacity="0.05"/>
<path opacity="0.37" d="M1375.19 90.1125C1384.7 90.1125 1392.41 82.4062 1392.41 72.9C1392.41 63.3938 1384.7 55.6875 1375.19 55.6875C1365.68 55.6875 1357.97 63.3938 1357.97 72.9C1357.97 82.4062 1365.68 90.1125 1375.19 90.1125Z" fill="white" fill-opacity="0.05"/>
<path opacity="0.61" d="M640 48.5996C651.186 48.5996 660.253 39.5334 660.253 28.3496C660.253 17.1658 651.186 8.09961 640 8.09961C628.814 8.09961 619.747 17.1658 619.747 28.3496C619.747 39.5334 628.814 48.5996 640 48.5996Z" fill="white" fill-opacity="0.05"/>
<path opacity="0.33" d="M1008.61 423.732C1013.92 423.732 1018.23 419.425 1018.23 414.113C1018.23 408.801 1013.92 404.494 1008.61 404.494C1003.29 404.494 998.987 408.801 998.987 414.113C998.987 419.425 1003.29 423.732 1008.61 423.732Z" fill="white" fill-opacity="0.05"/>
<path opacity="0.32" d="M958.987 160.481C964.86 160.481 969.62 155.721 969.62 149.85C969.62 143.979 964.86 139.219 958.987 139.219C953.115 139.219 948.354 143.979 948.354 149.85C948.354 155.721 953.115 160.481 958.987 160.481Z" fill="white" fill-opacity="0.05"/>
<path opacity="0.72" d="M891.139 646.481C895.334 646.481 898.734 643.082 898.734 638.888C898.734 634.694 895.334 631.294 891.139 631.294C886.945 631.294 883.544 634.694 883.544 638.888C883.544 643.082 886.945 646.481 891.139 646.481Z" fill="white" fill-opacity="0.05"/>
<path opacity="0.21" d="M29.3671 414.112C40.5526 414.112 49.6203 405.046 49.6203 393.862C49.6203 382.679 40.5526 373.612 29.3671 373.612C18.1816 373.612 9.11392 382.679 9.11392 393.862C9.11392 405.046 18.1816 414.112 29.3671 414.112Z" fill="white" fill-opacity="0.05"/>
<path opacity="0.37" d="M1334.68 227.813C1343.07 227.813 1349.87 221.013 1349.87 212.625C1349.87 204.237 1343.07 197.438 1334.68 197.438C1326.29 197.438 1319.49 204.237 1319.49 212.625C1319.49 221.013 1326.29 227.813 1334.68 227.813Z" fill="white" fill-opacity="0.05"/>
<path opacity="0.23" d="M1185.82 38.9816C1193.93 38.9816 1200.51 32.4086 1200.51 24.3004C1200.51 16.1922 1193.93 9.61914 1185.82 9.61914C1177.71 9.61914 1171.14 16.1922 1171.14 24.3004C1171.14 32.4086 1177.71 38.9816 1185.82 38.9816Z" fill="white" fill-opacity="0.05"/>
<path opacity="0.81" d="M928.608 561.937C934.76 561.937 939.747 556.951 939.747 550.8C939.747 544.649 934.76 539.662 928.608 539.662C922.456 539.662 917.468 544.649 917.468 550.8C917.468 556.951 922.456 561.937 928.608 561.937Z" fill="white" fill-opacity="0.05"/>
<path opacity="0.11" d="M1266.84 54.6754C1275.78 54.6754 1283.04 47.4224 1283.04 38.4754C1283.04 29.5284 1275.78 22.2754 1266.84 22.2754C1257.89 22.2754 1250.63 29.5284 1250.63 38.4754C1250.63 47.4224 1257.89 54.6754 1266.84 54.6754Z" fill="white" fill-opacity="0.05"/>
<path opacity="0.95" d="M98.2278 549.787C106.617 549.787 113.418 542.987 113.418 534.6C113.418 526.212 106.617 519.412 98.2278 519.412C89.8387 519.412 83.038 526.212 83.038 534.6C83.038 542.987 89.8387 549.787 98.2278 549.787Z" fill="white" fill-opacity="0.05"/>
<path opacity="0.87" d="M965.063 310.332C972.614 310.332 978.734 304.212 978.734 296.663C978.734 289.114 972.614 282.994 965.063 282.994C957.513 282.994 951.392 289.114 951.392 296.663C951.392 304.212 957.513 310.332 965.063 310.332Z" fill="white" fill-opacity="0.05"/>
<path opacity="0.21" d="M808.101 316.407C814.533 316.407 819.747 311.194 819.747 304.763C819.747 298.332 814.533 293.119 808.101 293.119C801.67 293.119 796.456 298.332 796.456 304.763C796.456 311.194 801.67 316.407 808.101 316.407Z" fill="white" fill-opacity="0.05"/>
<path opacity="0.6" d="M552.911 391.331C559.343 391.331 564.557 386.118 564.557 379.688C564.557 373.257 559.343 368.044 552.911 368.044C546.48 368.044 541.266 373.257 541.266 379.688C541.266 386.118 546.48 391.331 552.911 391.331Z" fill="white" fill-opacity="0.05"/>
<path opacity="0.58" d="M1308.35 169.088C1319.54 169.088 1328.61 160.022 1328.61 148.838C1328.61 137.654 1319.54 128.588 1308.35 128.588C1297.17 128.588 1288.1 137.654 1288.1 148.838C1288.1 160.022 1297.17 169.088 1308.35 169.088Z" fill="white" fill-opacity="0.05"/>
<path opacity="0.97" d="M1295.19 414.112C1306.38 414.112 1315.44 405.046 1315.44 393.862C1315.44 382.679 1306.38 373.612 1295.19 373.612C1284 373.612 1274.94 382.679 1274.94 393.862C1274.94 405.046 1284 414.112 1295.19 414.112Z" fill="white" fill-opacity="0.05"/>
<path opacity="0.67" d="M800 794.306C808.669 794.306 815.696 787.28 815.696 778.613C815.696 769.945 808.669 762.919 800 762.919C791.331 762.919 784.304 769.945 784.304 778.613C784.304 787.28 791.331 794.306 800 794.306Z" fill="white" fill-opacity="0.05"/>
<path opacity="0.22" d="M626.835 717.863C632.988 717.863 637.975 712.876 637.975 706.725C637.975 700.574 632.988 695.588 626.835 695.588C620.683 695.588 615.696 700.574 615.696 706.725C615.696 712.876 620.683 717.863 626.835 717.863Z" fill="white" fill-opacity="0.05"/>
<path opacity="0.29" d="M424.304 591.806C434.65 591.806 443.038 583.42 443.038 573.075C443.038 562.73 434.65 554.344 424.304 554.344C413.957 554.344 405.57 562.73 405.57 573.075C405.57 583.42 413.957 591.806 424.304 591.806Z" fill="white" fill-opacity="0.05"/>
<path opacity="0.6" d="M1211.14 701.663C1220.09 701.663 1227.34 694.41 1227.34 685.463C1227.34 676.516 1220.09 669.263 1211.14 669.263C1202.19 669.263 1194.94 676.516 1194.94 685.463C1194.94 694.41 1202.19 701.663 1211.14 701.663Z" fill="white" fill-opacity="0.05"/>
<path opacity="0.12" d="M1164.56 269.325C1171.27 269.325 1176.71 263.886 1176.71 257.175C1176.71 250.465 1171.27 245.025 1164.56 245.025C1157.85 245.025 1152.41 250.465 1152.41 257.175C1152.41 263.886 1157.85 269.325 1164.56 269.325Z" fill="white" fill-opacity="0.05"/>
<path opacity="0.21" d="M462.785 303.244C470.335 303.244 476.456 297.124 476.456 289.575C476.456 282.026 470.335 275.906 462.785 275.906C455.235 275.906 449.114 282.026 449.114 289.575C449.114 297.124 455.235 303.244 462.785 303.244Z" fill="white" fill-opacity="0.05"/>
<path opacity="0.35" d="M299.747 604.968C307.297 604.968 313.418 598.849 313.418 591.3C313.418 583.751 307.297 577.631 299.747 577.631C292.197 577.631 286.076 583.751 286.076 591.3C286.076 598.849 292.197 604.968 299.747 604.968Z" fill="white" fill-opacity="0.05"/>
<path opacity="0.52" d="M298.734 783.169C306.844 783.169 313.418 776.596 313.418 768.488C313.418 760.38 306.844 753.807 298.734 753.807C290.625 753.807 284.051 760.38 284.051 768.488C284.051 776.596 290.625 783.169 298.734 783.169Z" fill="white" fill-opacity="0.05"/>
<path opacity="0.46" d="M1091.65 293.625C1101.71 293.625 1109.87 285.465 1109.87 275.4C1109.87 265.334 1101.71 257.175 1091.65 257.175C1081.58 257.175 1073.42 265.334 1073.42 275.4C1073.42 285.465 1081.58 293.625 1091.65 293.625Z" fill="white" fill-opacity="0.05"/>
<path opacity="0.87" d="M205.57 177.694C213.12 177.694 219.24 171.574 219.24 164.025C219.24 156.476 213.12 150.356 205.57 150.356C198.019 150.356 191.899 156.476 191.899 164.025C191.899 171.574 198.019 177.694 205.57 177.694Z" fill="white" fill-opacity="0.05"/>
<path opacity="0.57" d="M1206.08 163.518C1211.95 163.518 1216.71 158.759 1216.71 152.887C1216.71 147.016 1211.95 142.256 1206.08 142.256C1200.2 142.256 1195.44 147.016 1195.44 152.887C1195.44 158.759 1200.2 163.518 1206.08 163.518Z" fill="white" fill-opacity="0.05"/>
<path opacity="0.3" d="M1129.11 800.887C1135.27 800.887 1140.25 795.901 1140.25 789.75C1140.25 783.599 1135.27 778.612 1129.11 778.612C1122.96 778.612 1117.97 783.599 1117.97 789.75C1117.97 795.901 1122.96 800.887 1129.11 800.887Z" fill="white" fill-opacity="0.05"/>
<path opacity="0.94" d="M1377.22 498.656C1384.77 498.656 1390.89 492.536 1390.89 484.987C1390.89 477.438 1384.77 471.318 1377.22 471.318C1369.66 471.318 1363.54 477.438 1363.54 484.987C1363.54 492.536 1369.66 498.656 1377.22 498.656Z" fill="white" fill-opacity="0.05"/>
<path opacity="0.82" d="M1009.62 71.3814C1017.17 71.3814 1023.29 65.2617 1023.29 57.7127C1023.29 50.1637 1017.17 44.0439 1009.62 44.0439C1002.07 44.0439 995.949 50.1637 995.949 57.7127C995.949 65.2617 1002.07 71.3814 1009.62 71.3814Z" fill="white" fill-opacity="0.05"/>
<path opacity="0.78" d="M1210.13 742.163C1217.96 742.163 1224.3 735.816 1224.3 727.988C1224.3 720.159 1217.96 713.812 1210.13 713.812C1202.3 713.812 1195.95 720.159 1195.95 727.988C1195.95 735.816 1202.3 742.163 1210.13 742.163Z" fill="white" fill-opacity="0.05"/>
<path opacity="0.9" d="M758.481 566.494C762.116 566.494 765.063 563.547 765.063 559.912C765.063 556.278 762.116 553.331 758.481 553.331C754.846 553.331 751.899 556.278 751.899 559.912C751.899 563.547 754.846 566.494 758.481 566.494Z" fill="white" fill-opacity="0.05"/>
<path opacity="0.12" d="M810.127 491.568C817.118 491.568 822.785 485.902 822.785 478.912C822.785 471.922 817.118 466.256 810.127 466.256C803.136 466.256 797.468 471.922 797.468 478.912C797.468 485.902 803.136 491.568 810.127 491.568Z" fill="white" fill-opacity="0.05"/>
<path opacity="0.58" d="M958.987 582.188C964.58 582.188 969.114 577.654 969.114 572.062C969.114 566.471 964.58 561.938 958.987 561.938C953.395 561.938 948.861 566.471 948.861 572.062C948.861 577.654 953.395 582.188 958.987 582.188Z" fill="white" fill-opacity="0.05"/>
<path opacity="0.18" d="M32.4051 479.925C43.0313 479.925 51.6456 471.312 51.6456 460.688C51.6456 450.063 43.0313 441.45 32.4051 441.45C21.7788 441.45 13.1646 450.063 13.1646 460.688C13.1646 471.312 21.7788 479.925 32.4051 479.925Z" fill="white" fill-opacity="0.05"/>
<path opacity="0.19" d="M192.405 801.9C199.116 801.9 204.557 796.46 204.557 789.75C204.557 783.039 199.116 777.6 192.405 777.6C185.694 777.6 180.253 783.039 180.253 789.75C180.253 796.46 185.694 801.9 192.405 801.9Z" fill="white" fill-opacity="0.05"/>
<path opacity="0.73" d="M308.861 530.044C316.97 530.044 323.544 523.471 323.544 515.363C323.544 507.255 316.97 500.682 308.861 500.682C300.751 500.682 294.177 507.255 294.177 515.363C294.177 523.471 300.751 530.044 308.861 530.044Z" fill="white" fill-opacity="0.05"/>
<path opacity="0.27" d="M1421.77 352.35C1427.92 352.35 1432.91 347.364 1432.91 341.213C1432.91 335.062 1427.92 330.075 1421.77 330.075C1415.62 330.075 1410.63 335.062 1410.63 341.213C1410.63 347.364 1415.62 352.35 1421.77 352.35Z" fill="white" fill-opacity="0.05"/>
<path opacity="0.84" d="M1281.01 699.131C1287.44 699.131 1292.66 693.918 1292.66 687.488C1292.66 681.057 1287.44 675.844 1281.01 675.844C1274.58 675.844 1269.37 681.057 1269.37 687.488C1269.37 693.918 1274.58 699.131 1281.01 699.131Z" fill="white" fill-opacity="0.05"/>
<path opacity="0.44" d="M1362.03 621.168C1371.25 621.168 1378.73 613.689 1378.73 604.462C1378.73 595.236 1371.25 587.756 1362.03 587.756C1352.8 587.756 1345.32 595.236 1345.32 604.462C1345.32 613.689 1352.8 621.168 1362.03 621.168Z" fill="white" fill-opacity="0.05"/>
<path opacity="0.56" d="M296.709 417.656C301.463 417.656 305.316 413.803 305.316 409.05C305.316 404.297 301.463 400.443 296.709 400.443C291.955 400.443 288.101 404.297 288.101 409.05C288.101 413.803 291.955 417.656 296.709 417.656Z" fill="white" fill-opacity="0.05"/>
<path opacity="0.53" d="M533.671 150.862C539.264 150.862 543.797 146.329 543.797 140.737C543.797 135.145 539.264 130.612 533.671 130.612C528.078 130.612 523.544 135.145 523.544 140.737C523.544 146.329 528.078 150.862 533.671 150.862Z" fill="white" fill-opacity="0.05"/>
<path opacity="0.63" d="M730.127 692.044C737.677 692.044 743.797 685.924 743.797 678.375C743.797 670.826 737.677 664.706 730.127 664.706C722.576 664.706 716.456 670.826 716.456 678.375C716.456 685.924 722.576 692.044 730.127 692.044Z" fill="white" fill-opacity="0.05"/>
</svg>
