<svg xmlns="http://www.w3.org/2000/svg" version="1.1" xmlns:xlink="http://www.w3.org/1999/xlink" xmlns:svgjs="http://svgjs.dev/svgjs" viewBox="0 0 1422 800"><circle r="16.5" cx="470" cy="343" fill="hsl(360, 15%, 90%)" opacity="0.24"></circle><circle r="11" cx="957" cy="782" fill="hsl(360, 15%, 90%)" opacity="0.97"></circle><circle r="12.5" cx="409" cy="671" fill="hsl(360, 15%, 90%)" opacity="0.22"></circle><circle r="18.5" cx="1222" cy="610" fill="hsl(360, 15%, 90%)" opacity="0.81"></circle><circle r="15" cx="1131" cy="565" fill="hsl(360, 15%, 90%)" opacity="0.15"></circle><circle r="11.5" cx="697" cy="499" fill="hsl(360, 15%, 90%)" opacity="0.40"></circle><circle r="16" cx="249" cy="141" fill="hsl(360, 15%, 90%)" opacity="0.12"></circle><circle r="16" cx="562" cy="680" fill="hsl(360, 15%, 90%)" opacity="0.44"></circle><circle r="15" cx="247" cy="771" fill="hsl(360, 15%, 90%)" opacity="0.37"></circle><circle r="15.5" cx="416" cy="252" fill="hsl(360, 15%, 90%)" opacity="0.62"></circle><circle r="16.5" cx="549" cy="624" fill="hsl(360, 15%, 90%)" opacity="0.88"></circle><circle r="10.5" cx="917" cy="679" fill="hsl(360, 15%, 90%)" opacity="0.73"></circle><circle r="13" cx="657" cy="388" fill="hsl(360, 15%, 90%)" opacity="0.94"></circle><circle r="15" cx="1010" cy="259" fill="hsl(360, 15%, 90%)" opacity="0.38"></circle><circle r="14" cx="642" cy="149" fill="hsl(360, 15%, 90%)" opacity="0.26"></circle><circle r="14.5" cx="59" cy="635" fill="hsl(360, 15%, 90%)" opacity="0.20"></circle><circle r="8.5" cx="265" cy="396" fill="hsl(360, 15%, 90%)" opacity="0.86"></circle><circle r="12.5" cx="1131" cy="457" fill="hsl(360, 15%, 90%)" opacity="0.62"></circle><circle r="8.5" cx="217" cy="416" fill="hsl(360, 15%, 90%)" opacity="0.99"></circle><circle r="14.5" cx="512" cy="740" fill="hsl(360, 15%, 90%)" opacity="0.51"></circle><circle r="9" cx="1407" cy="735" fill="hsl(360, 15%, 90%)" opacity="0.78"></circle><circle r="17.5" cx="297" cy="677" fill="hsl(360, 15%, 90%)" opacity="0.92"></circle><circle r="10" cx="1092" cy="430" fill="hsl(360, 15%, 90%)" opacity="0.72"></circle><circle r="15.5" cx="258" cy="542" fill="hsl(360, 15%, 90%)" opacity="0.15"></circle><circle r="11.5" cx="315" cy="356" fill="hsl(360, 15%, 90%)" opacity="1.00"></circle><circle r="10.5" cx="640" cy="669" fill="hsl(360, 15%, 90%)" opacity="0.13"></circle><circle r="10" cx="981" cy="631" fill="hsl(360, 15%, 90%)" opacity="0.26"></circle><circle r="15.5" cx="610" cy="191" fill="hsl(360, 15%, 90%)" opacity="0.76"></circle><circle r="11" cx="806" cy="654" fill="hsl(360, 15%, 90%)" opacity="0.35"></circle><circle r="12.5" cx="560" cy="757" fill="hsl(360, 15%, 90%)" opacity="0.97"></circle><circle r="16" cx="751" cy="204" fill="hsl(360, 15%, 90%)" opacity="0.27"></circle><circle r="10" cx="240" cy="439" fill="hsl(360, 15%, 90%)" opacity="0.50"></circle><circle r="8" cx="100" cy="788" fill="hsl(360, 15%, 90%)" opacity="0.84"></circle><circle r="12.5" cx="918" cy="719" fill="hsl(360, 15%, 90%)" opacity="0.28"></circle><circle r="19" cx="1292" cy="312" fill="hsl(360, 15%, 90%)" opacity="0.31"></circle><circle r="18.5" cx="1322" cy="644" fill="hsl(360, 15%, 90%)" opacity="0.57"></circle><circle r="13" cx="877" cy="479" fill="hsl(360, 15%, 90%)" opacity="0.31"></circle><circle r="11" cx="745" cy="295" fill="hsl(360, 15%, 90%)" opacity="0.87"></circle><circle r="12" cx="120" cy="112" fill="hsl(360, 15%, 90%)" opacity="0.17"></circle><circle r="8.5" cx="992" cy="16" fill="hsl(360, 15%, 90%)" opacity="0.25"></circle><circle r="15.5" cx="573" cy="332" fill="hsl(360, 15%, 90%)" opacity="0.66"></circle><circle r="17" cx="656" cy="88" fill="hsl(360, 15%, 90%)" opacity="0.71"></circle><circle r="18" cx="1281" cy="599" fill="hsl(360, 15%, 90%)" opacity="0.81"></circle><circle r="11" cx="1097" cy="199" fill="hsl(360, 15%, 90%)" opacity="0.51"></circle><circle r="13" cx="1132" cy="56" fill="hsl(360, 15%, 90%)" opacity="0.58"></circle><circle r="12" cx="854" cy="217" fill="hsl(360, 15%, 90%)" opacity="0.32"></circle><circle r="18" cx="467" cy="62" fill="hsl(360, 15%, 90%)" opacity="0.66"></circle><circle r="16.5" cx="397" cy="197" fill="hsl(360, 15%, 90%)" opacity="0.50"></circle><circle r="12.5" cx="843" cy="59" fill="hsl(360, 15%, 90%)" opacity="0.37"></circle><circle r="13" cx="17" cy="650" fill="hsl(360, 15%, 90%)" opacity="0.38"></circle><circle r="9" cx="328" cy="409" fill="hsl(360, 15%, 90%)" opacity="0.95"></circle><circle r="9.5" cx="746" cy="583" fill="hsl(360, 15%, 90%)" opacity="0.96"></circle><circle r="12.5" cx="179" cy="436" fill="hsl(360, 15%, 90%)" opacity="0.38"></circle><circle r="14.5" cx="1017" cy="778" fill="hsl(360, 15%, 90%)" opacity="0.75"></circle><circle r="15.5" cx="913" cy="89" fill="hsl(360, 15%, 90%)" opacity="0.63"></circle><circle r="16.5" cx="1308" cy="26" fill="hsl(360, 15%, 90%)" opacity="0.33"></circle><circle r="8" cx="213" cy="374" fill="hsl(360, 15%, 90%)" opacity="0.27"></circle><circle r="12" cx="114" cy="23" fill="hsl(360, 15%, 90%)" opacity="0.97"></circle><circle r="15" cx="142" cy="745" fill="hsl(360, 15%, 90%)" opacity="0.89"></circle><circle r="12.5" cx="1372" cy="750" fill="hsl(360, 15%, 90%)" opacity="0.44"></circle><circle r="15" cx="236" cy="87" fill="hsl(360, 15%, 90%)" opacity="0.38"></circle><circle r="18.5" cx="1222" cy="772" fill="hsl(360, 15%, 90%)" opacity="0.17"></circle><circle r="14" cx="869" cy="24" fill="hsl(360, 15%, 90%)" opacity="0.55"></circle><circle r="12.5" cx="141" cy="580" fill="hsl(360, 15%, 90%)" opacity="0.31"></circle><circle r="13" cx="418" cy="22" fill="hsl(360, 15%, 90%)" opacity="0.52"></circle><circle r="14" cx="159" cy="133" fill="hsl(360, 15%, 90%)" opacity="0.95"></circle><circle r="12.5" cx="875" cy="532" fill="hsl(360, 15%, 90%)" opacity="0.60"></circle><circle r="21.5" cx="33" cy="214" fill="hsl(360, 15%, 90%)" opacity="0.90"></circle><circle r="9.5" cx="817" cy="102" fill="hsl(360, 15%, 90%)" opacity="0.99"></circle><circle r="14" cx="638" cy="477" fill="hsl(360, 15%, 90%)" opacity="0.18"></circle><circle r="14.5" cx="387" cy="620" fill="hsl(360, 15%, 90%)" opacity="0.18"></circle><circle r="9" cx="668" cy="602" fill="hsl(360, 15%, 90%)" opacity="0.80"></circle><circle r="16" cx="260" cy="277" fill="hsl(360, 15%, 90%)" opacity="0.40"></circle><circle r="13" cx="1261" cy="346" fill="hsl(360, 15%, 90%)" opacity="0.30"></circle><circle r="14.5" cx="961" cy="669" fill="hsl(360, 15%, 90%)" opacity="0.48"></circle><circle r="11.5" cx="797" cy="341" fill="hsl(360, 15%, 90%)" opacity="0.81"></circle><circle r="14.5" cx="832" cy="558" fill="hsl(360, 15%, 90%)" opacity="0.25"></circle><circle r="18" cx="483" cy="613" fill="hsl(360, 15%, 90%)" opacity="0.97"></circle><circle r="12.5" cx="682" cy="280" fill="hsl(360, 15%, 90%)" opacity="0.93"></circle><circle r="15.5" cx="1053" cy="344" fill="hsl(360, 15%, 90%)" opacity="0.18"></circle><circle r="20.5" cx="1083" cy="509" fill="hsl(360, 15%, 90%)" opacity="0.81"></circle><circle r="11" cx="1177" cy="183" fill="hsl(360, 15%, 90%)" opacity="0.14"></circle><circle r="15" cx="928" cy="442" fill="hsl(360, 15%, 90%)" opacity="0.30"></circle><circle r="9.5" cx="755" cy="335" fill="hsl(360, 15%, 90%)" opacity="0.24"></circle><circle r="17" cx="1358" cy="72" fill="hsl(360, 15%, 90%)" opacity="0.37"></circle><circle r="20" cx="632" cy="28" fill="hsl(360, 15%, 90%)" opacity="0.61"></circle><circle r="9.5" cx="996" cy="409" fill="hsl(360, 15%, 90%)" opacity="0.33"></circle><circle r="10.5" cx="947" cy="148" fill="hsl(360, 15%, 90%)" opacity="0.32"></circle><circle r="7.5" cx="880" cy="631" fill="hsl(360, 15%, 90%)" opacity="0.72"></circle><circle r="20" cx="29" cy="389" fill="hsl(360, 15%, 90%)" opacity="0.21"></circle><circle r="15" cx="1318" cy="210" fill="hsl(360, 15%, 90%)" opacity="0.37"></circle><circle r="14.5" cx="1171" cy="24" fill="hsl(360, 15%, 90%)" opacity="0.23"></circle><circle r="11" cx="917" cy="544" fill="hsl(360, 15%, 90%)" opacity="0.81"></circle><circle r="16" cx="1251" cy="38" fill="hsl(360, 15%, 90%)" opacity="0.11"></circle><circle r="15" cx="97" cy="528" fill="hsl(360, 15%, 90%)" opacity="0.95"></circle><circle r="13.5" cx="953" cy="293" fill="hsl(360, 15%, 90%)" opacity="0.87"></circle><circle r="11.5" cx="798" cy="301" fill="hsl(360, 15%, 90%)" opacity="0.21"></circle><circle r="11.5" cx="546" cy="375" fill="hsl(360, 15%, 90%)" opacity="0.60"></circle><circle r="20" cx="1292" cy="147" fill="hsl(360, 15%, 90%)" opacity="0.58"></circle><circle r="20" cx="1279" cy="389" fill="hsl(360, 15%, 90%)" opacity="0.97"></circle><circle r="15.5" cx="790" cy="769" fill="hsl(360, 15%, 90%)" opacity="0.67"></circle><circle r="11" cx="619" cy="698" fill="hsl(360, 15%, 90%)" opacity="0.22"></circle><circle r="18.5" cx="419" cy="566" fill="hsl(360, 15%, 90%)" opacity="0.29"></circle><circle r="16" cx="1196" cy="677" fill="hsl(360, 15%, 90%)" opacity="0.60"></circle><circle r="12" cx="1150" cy="254" fill="hsl(360, 15%, 90%)" opacity="0.12"></circle><circle r="13.5" cx="457" cy="286" fill="hsl(360, 15%, 90%)" opacity="0.21"></circle><circle r="13.5" cx="296" cy="584" fill="hsl(360, 15%, 90%)" opacity="0.35"></circle><circle r="14.5" cx="295" cy="759" fill="hsl(360, 15%, 90%)" opacity="0.52"></circle><circle r="18" cx="1078" cy="272" fill="hsl(360, 15%, 90%)" opacity="0.46"></circle><circle r="13.5" cx="203" cy="162" fill="hsl(360, 15%, 90%)" opacity="0.87"></circle><circle r="10.5" cx="1191" cy="151" fill="hsl(360, 15%, 90%)" opacity="0.57"></circle><circle r="11" cx="1115" cy="780" fill="hsl(360, 15%, 90%)" opacity="0.30"></circle><circle r="13.5" cx="1360" cy="479" fill="hsl(360, 15%, 90%)" opacity="0.94"></circle><circle r="13.5" cx="997" cy="57" fill="hsl(360, 15%, 90%)" opacity="0.82"></circle><circle r="14" cx="1195" cy="719" fill="hsl(360, 15%, 90%)" opacity="0.78"></circle><circle r="6.5" cx="749" cy="553" fill="hsl(360, 15%, 90%)" opacity="0.90"></circle><circle r="12.5" cx="800" cy="473" fill="hsl(360, 15%, 90%)" opacity="0.12"></circle><circle r="10" cx="947" cy="565" fill="hsl(360, 15%, 90%)" opacity="0.58"></circle><circle r="19" cx="32" cy="455" fill="hsl(360, 15%, 90%)" opacity="0.18"></circle><circle r="12" cx="190" cy="780" fill="hsl(360, 15%, 90%)" opacity="0.19"></circle><circle r="14.5" cx="305" cy="509" fill="hsl(360, 15%, 90%)" opacity="0.73"></circle><circle r="11" cx="1404" cy="337" fill="hsl(360, 15%, 90%)" opacity="0.27"></circle><circle r="11.5" cx="1265" cy="679" fill="hsl(360, 15%, 90%)" opacity="0.84"></circle><circle r="16.5" cx="1345" cy="597" fill="hsl(360, 15%, 90%)" opacity="0.44"></circle><circle r="8.5" cx="293" cy="404" fill="hsl(360, 15%, 90%)" opacity="0.56"></circle><circle r="10" cx="527" cy="139" fill="hsl(360, 15%, 90%)" opacity="0.53"></circle><circle r="13.5" cx="721" cy="670" fill="hsl(360, 15%, 90%)" opacity="0.63"></circle></svg>